<?xml version="1.0" standalone="no"?>
<!DOCTYPE svg PUBLIC "-//W3C//DTD SVG 1.1//EN" "http://www.w3.org/Graphics/SVG/1.1/DTD/svg11.dtd">
<svg xmlns="http://www.w3.org/2000/svg">
<metadata>Generated by Fontastic.me</metadata>
<defs>
<font id="repoot" horiz-adv-x="512">
<font-face font-family="repoot" units-per-em="512" ascent="480" descent="-32"/>
<missing-glyph horiz-adv-x="512" />

<glyph glyph-name="bars" unicode="&#97;" d="M232 6l-199 0c-18 0-33 15-33 33l0 266c0 18 15 33 33 33l133 0c8 0 14-6 14-14 0-7-6-14-14-14l-133 0c-3 0-5-2-5-5l0-266c0-3 2-5 5-5l199 0c8 0 15-7 15-14 0-8-7-14-15-14z m247 0l-190 0c-7 0-14 6-14 14 0 7 7 14 14 14l190 0c3 0 5 2 5 5l0 174c0 3-2 5-5 5l-123 0c-8 0-15 7-15 14 0 8 7 15 15 15l123 0c18 0 33-16 33-34l0-174c0-18-15-33-33-33z m-161 0l-124 0c-18 0-33 15-33 33l0 430c0 18 15 34 33 34l124 0c18 0 33-16 33-34l0-430c0-18-15-33-33-33z m-124 468c-2 0-4-2-4-5l0-430c0-3 2-5 4-5l124 0c2 0 4 2 4 5l0 430c0 3-2 5-4 5z"/>
<glyph glyph-name="branches" unicode="&#98;" d="M445 116l-84 80c32 9 50 41 41 73-6 22-25 39-49 42l-83 85c31 8 51 39 43 72-8 31-39 51-72 43-31-8-51-39-43-72 5-22 22-38 43-43l-83-85c-33-5-55-35-50-68 4-22 20-41 43-47l-82-80c-33-6-54-36-48-68 6-31 36-54 68-48 32 6 54 36 48 68-4 25-24 44-48 48l76 74 78-74c-31-8-51-39-43-71 8-31 39-51 71-43 31 8 51 39 43 71-5 22-22 38-43 43l78 74 76-74c-32-6-54-36-48-68 6-32 37-54 68-48 33 6 54 36 48 68-4 25-22 43-48 48z m-53 136c0-26-21-45-45-45-26 0-46 20-46 45 0 26 21 45 46 45 24 0 45-19 45-45m-57-58l-78-74-78 74c33 6 53 37 47 69-4 25-23 43-48 47l79 81 79-81c-33-5-54-35-49-68 4-24 23-43 48-48z m-123 259c0 26 20 45 45 45 26 0 45-20 45-45 0-26-20-45-45-45-25 0-45 19-45 45m-89-201c0 26 21 45 45 45 26 0 46-20 46-45 0-26-21-45-46-45-25 0-45 19-45 45m2-194c0-26-21-45-45-45-26 0-46 20-46 45 0 26 21 45 46 45 24 0 46-20 45-45z m178 0c0-26-20-45-45-45-26 0-45 20-45 45 0 26 20 45 45 45 25 0 45-20 45-45m131-46c-25 0-45 20-45 45 0 26 21 45 45 45 26 0 46-20 46-45 0-25-20-45-46-45z"/>
<glyph glyph-name="home" unicode="&#99;" d="M482 266c-4 0-7 1-10 4l-210 211c-4 4-10 4-13 0l-211-211c-5-6-15-6-20 0-6 6-6 14 0 20l211 211c7 7 16 11 26 11 10 0 20-4 27-11l210-211c6-6 6-14 0-20-2-3-6-4-10-4m-45-262l-109 0c-8 0-14 6-14 14l0 125c0 2-3 4-6 4l-93 0c-3 0-6-2-6-4l0-125c0-8-6-14-14-14l-121 0c-8 0-14 6-14 14l0 230c0 7 6 14 14 14 7 0 14-7 14-14l0-216 94 0 0 111c0 18 14 32 33 32l94 0c19 0 34-14 34-32l0-111 81 0 0 216c0 7 6 14 14 14 7 0 13-7 13-14l0-230c0-9-6-14-14-14"/>
<glyph glyph-name="report" unicode="&#101;" d="M457 419c-32 0-57-25-57-57 0-21 11-40 29-50l-66-89c-4 1-7 1-12 1-9 0-19-2-27-7l-43 62c9 10 14 23 14 38 0 32-26 57-58 57-31 0-57-25-57-57 0-12 4-21 9-30l-97-87c-10 7-20 11-33 11-32 0-57-26-57-57 0-32 25-58 57-58 32 0 58 26 58 58 0 9-3 19-8 27l98 87c9-5 20-8 30-8 8 0 15 1 23 4l45-64c-7-10-11-21-11-33 0-32 26-58 57-58 32 0 58 26 58 58 0 18-9 34-22 45l69 93c0 0 0 0 1 0 32 0 58 25 58 57 0 32-26 57-58 57m-400-298c-16 0-31 14-31 31 0 17 15 31 31 31 17 0 31-14 31-31 0-17-13-31-31-31m149 195c0 17 14 31 31 31 16 0 30-14 30-31 0-17-14-31-30-31-17 0-31 13-31 31m145-181c-16 0-31 14-31 31 0 17 15 31 31 31 17 0 31-14 31-31 0-18-13-31-31-31m106 195c-17 0-31 14-31 31 0 17 14 31 31 31 17 0 31-14 31-31 0-17-13-31-31-31"/>
<glyph glyph-name="notification" unicode="&#102;" d="M446 49l-381 0c-18 0-34 15-34 35 0 18 15 34 34 34l12 0 0 166c0 99 80 179 179 179 99 0 179-80 179-179l0-165 11 0c18 0 34-15 34-34-1-20-16-36-34-36m-381 41c-3 0-6-3-6-6 0-4 3-6 6-6l381 0c3 0 6 2 6 6 0 3-3 6-6 6l-40 0 0 194c0 83-68 151-151 151-83-1-150-68-150-151l0-194z m190-92c-32 0-55 20-55 45l28 0c0-8 11-17 27-17 16 0 27 9 27 17l29 0c1-24-24-45-56-45m42 472l-28 0c0 8-6 14-14 14-8 0-14-6-14-14l-28 0c0 23 18 42 42 42 24 0 42-19 42-42"/>
<glyph glyph-name="angle-down" unicode="&#100;" d="M399 302c0-3-1-5-3-7l-133-133c-2-2-5-3-7-3-2 0-5 1-7 3l-133 133c-2 2-3 4-3 7 0 2 1 4 3 6l15 15c1 1 4 2 6 2 3 0 5-1 7-2l112-113 112 113c2 1 4 2 7 2 2 0 5-1 6-2l15-15c2-2 3-4 3-6z"/>
<glyph glyph-name="angle-left" unicode="&#103;" d="M344 357c0-3-1-5-3-7l-112-112 112-113c2-1 3-4 3-6 0-3-1-5-3-7l-14-14c-2-2-5-3-7-3-2 0-5 1-7 3l-133 133c-2 2-3 4-3 7 0 2 1 4 3 6l133 133c2 2 5 3 7 3 2 0 5-1 7-3l14-14c2-2 3-4 3-6z"/>
<glyph glyph-name="angle-right" unicode="&#104;" d="M335 238c0-3-1-5-3-7l-133-133c-2-2-5-3-7-3-2 0-5 1-7 3l-14 14c-2 2-3 4-3 7 0 2 1 5 3 6l112 113-112 112c-2 2-3 4-3 7 0 2 1 4 3 6l14 14c2 2 5 3 7 3 2 0 5-1 7-3l133-133c2-2 3-4 3-6z"/>
<glyph glyph-name="angle-up" unicode="&#105;" d="M399 174c0-3-1-5-3-7l-15-14c-1-2-4-3-6-3-3 0-5 1-7 3l-112 112-112-112c-2-2-4-3-7-3-2 0-5 1-6 3l-15 14c-2 2-3 4-3 7 0 2 1 4 3 6l133 133c2 2 5 3 7 3 2 0 5-1 7-3l133-133c2-2 3-4 3-6z"/>
<glyph glyph-name="alert" unicode="&#106;" d="M255 2c-141 0-255 115-255 255 0 141 114 255 255 255 140 0 255-114 255-255 0-140-115-255-255-255m0 492c-131 0-237-106-237-237 0-130 106-237 237-237 130 0 237 107 237 237 1 131-106 237-237 237m-20-334c0 12 9 21 20 21 13 0 20-9 20-21 0-12-7-21-20-21-12 0-20 9-20 21z m9 48l-5 163 32 0-4-163z"/>
<glyph glyph-name="chat" unicode="&#107;" d="M429 512l-346 0c-46 0-83-37-83-84l0-223c0-45 37-83 83-83l125 0 119-119c2-2 5-3 7-3 3 0 6 2 5 6l-3 116 93 0c46 0 83 37 83 83l0 223c0 47-37 84-83 84m55-307c0-30-25-56-55-56l-122 0 1-28 1-61-83 82-7 7-136 0c-30 0-55 25-55 56l0 223c0 31 25 56 55 56l346 0c30 0 55-25 55-56z m-110 164l-222 0c-7 0-14-6-14-14 0-8 7-14 14-14l222 0c7 0 13 6 13 14 0 8-6 14-13 14m-70-77l-152 0c-7 0-14-6-14-14 0-7 7-14 14-14l152 0c8 0 14 7 14 14 0 8-6 14-14 14"/>
<glyph glyph-name="clock" unicode="&#108;" d="M244 199l162 0c6 0 10 4 10 10 0 6-4 10-10 10l-162 0 0 162c0 6-4 10-11 10-6 0-10-4-10-10l0-162z m14-203c-141 0-258 115-258 258 0 143 117 258 258 258 141 0 258-117 258-258 0-141-115-258-258-258m0 485c-125 0-227-102-227-227 0-125 102-227 227-227 125 0 227 102 227 227 0 125-102 227-227 227"/>
<glyph glyph-name="trash" unicode="&#110;" d="M201 302l0-165c0-3-1-5-2-6-2-2-4-3-7-3l-18 0c-3 0-5 1-7 3-2 1-2 3-2 6l0 165c0 2 0 5 2 6 2 2 4 3 7 3l18 0c3 0 5-1 7-3 1-1 2-4 2-6z m73 0l0-165c0-3-1-5-2-6-2-2-4-3-7-3l-18 0c-3 0-5 1-7 3-1 1-2 3-2 6l0 165c0 2 1 5 2 6 2 2 4 3 7 3l18 0c3 0 5-1 7-3 1-1 2-4 2-6z m73 0l0-165c0-3 0-5-2-6-2-2-4-3-7-3l-18 0c-3 0-5 1-7 3-1 1-2 3-2 6l0 165c0 2 1 5 2 6 2 2 4 3 7 3l18 0c3 0 5-1 7-3 2-1 2-4 2-6z m37-207l0 271-256 0 0-271c0-4 1-8 2-12 1-3 3-6 4-7 2-2 3-3 3-3l238 0c0 0 1 1 3 3 1 1 3 4 4 7 1 4 2 8 2 12z m-192 307l128 0-14 34c-1 1-3 2-5 3l-90 0c-2-1-4-2-5-3z m265-9l0-18c0-3-1-5-2-7-2-1-4-2-7-2l-27 0 0-271c0-16-5-30-14-41-9-12-20-17-32-17l-238 0c-12 0-23 5-32 16-9 11-14 25-14 41l0 272-27 0c-3 0-5 1-7 2-1 2-2 4-2 7l0 18c0 3 1 5 2 7 2 1 4 2 7 2l88 0 20 48c3 7 8 13 16 18 7 5 15 7 22 7l92 0c7 0 15-2 22-7 8-5 13-11 16-18l20-48 88 0c3 0 5-1 7-2 1-2 2-4 2-7z"/>
<glyph glyph-name="settings" unicode="&#111;" d="M329 256c0 20-7 37-21 52-15 14-32 21-52 21-20 0-37-7-52-21-14-15-21-32-21-52 0-20 7-37 21-52 15-14 32-21 52-21 20 0 37 7 52 21 14 15 21 32 21 52z m146 31l0-63c0-3 0-5-2-7-1-2-3-3-6-4l-52-8c-4-10-8-19-12-26 7-9 17-22 31-39 2-2 3-5 3-7 0-3-1-5-3-7-5-7-14-17-28-31-14-13-23-20-27-20-2 0-5 1-7 3l-40 31c-8-5-17-8-26-11-3-26-6-44-8-53-1-6-5-8-10-8l-64 0c-2 0-5 0-7 2-2 2-3 4-3 6l-8 53c-9 3-18 6-26 10l-40-30c-2-2-4-3-7-3-3 0-5 1-7 3-24 22-40 38-47 48-2 2-2 4-2 7 0 2 0 4 2 6 3 4 8 11 14 19 7 9 12 16 16 21-5 9-9 19-12 28l-52 8c-3 0-5 1-6 3-2 2-2 4-2 7l0 63c0 3 0 5 2 7 1 2 3 3 5 4l53 8c3 8 7 17 12 26-8 11-18 24-31 39-2 3-3 5-3 7 0 2 1 4 3 7 5 7 14 17 28 30 14 14 23 21 27 21 2 0 5-1 7-3l40-31c8 5 17 8 26 11 3 26 6 44 8 53 1 6 5 8 10 8l64 0c2 0 5 0 7-2 2-2 3-4 3-6l8-53c9-3 18-6 26-10l40 30c2 2 4 3 7 3 3 0 5-1 7-3 25-23 41-39 47-49 2-1 2-3 2-6 0-2 0-4-2-6-3-4-8-11-14-19-7-9-12-16-16-21 5-9 9-18 12-28l52-8c3 0 5-1 6-3 2-2 2-4 2-7z"/>
<glyph glyph-name="add" unicode="&#112;" d="M416 235l-139 0 0-139-42 0 0 139-139 0 0 42 139 0 0 139 42 0 0-139 139 0z"/>
<glyph glyph-name="close" unicode="&#113;" d="M405 375l-30 30-119-119-119 119-30-30 119-119-119-119 30-30 119 119 119-119 30 30-119 119z"/>
<glyph glyph-name="check" unicode="&#114;" d="M186 172l-90 91-32-31 122-122 262 261-32 31z"/>
<glyph glyph-name="menu" unicode="&#115;" d="M64 128l384 0 0 43-384 0z m0 107l384 0 0 42-384 0z m0 149l0-43 384 0 0 43z"/>
<glyph glyph-name="calendar" unicode="&#117;" d="M352 416l0 32-16 0 0-32-160 0 0 32-16 0 0-32-96 0 0-352 384 0 0 352z m80-336l-352 0 0 240 352 0z m0 256l-352 0 0 64 80 0 0-32 16 0 0 32 160 0 0-32 16 0 0 32 80 0z"/>
<glyph glyph-name="minus" unicode="&#109;" d="M96 277l320 0 0-42-320 0z"/>
<glyph glyph-name="instagram" unicode="&#116;" d="M388 356c0-14-11-25-25-25-13 0-24 11-24 25 0 14 11 24 24 24 14 0 25-10 25-24m-134-177c-37 0-68 30-68 68 0 38 31 68 68 68 38 0 68-30 68-68 0-38-30-68-68-68m0 173c-58 0-105-47-105-105 0-58 47-105 105-105 58 0 105 47 105 105 0 58-47 105-105 105m0 99c-55 0-62 0-84-1-22-1-36-5-49-10-14-5-25-12-37-23-11-11-18-23-23-36-5-13-9-28-10-50-1-22-1-29-1-84 0-55 0-62 1-84 1-22 5-37 10-50 5-13 12-24 23-36 12-11 23-18 37-23 13-5 27-9 49-10 22-1 29-1 84-1 56 0 63 0 84 1 22 1 37 5 50 10 13 5 25 12 36 23 11 12 18 23 24 36 5 13 8 28 9 50 1 22 1 29 1 84 0 55 0 62-1 84-1 22-4 37-9 50-6 13-13 25-24 36-11 11-23 18-36 23-13 5-28 9-50 10-21 1-28 1-84 1m0-37c55 0 61 0 83-1 20-1 30-4 38-7 9-4 16-8 23-15 7-7 12-14 15-24 3-7 6-18 7-37 1-22 2-28 2-83 0-54-1-61-2-82-1-20-4-31-7-38-3-10-8-17-15-24-7-7-14-11-23-15-8-3-18-6-38-7-22-1-28-1-83-1-54 0-61 0-82 1-20 1-31 4-38 7-10 4-16 8-24 15-7 7-11 14-15 24-3 7-6 18-7 38-1 21-1 28-1 82 0 55 0 61 1 83 1 19 4 30 7 37 4 10 8 17 15 24 8 7 14 11 24 15 7 3 18 6 38 7 21 1 28 1 82 1"/>
<glyph glyph-name="facebook" unicode="&#118;" d="M195 397c0-11 0-63 0-63l-47 0 0-78 47 0 0-230 95 0 0 230 65 0c0 0 6 37 8 78-8 0-72 0-72 0 0 0 0 45 0 53 0 8 10 19 21 19 10 0 31 0 52 0 0 10 0 47 0 80-27 0-58 0-71 0-100 0-98-77-98-89z"/>
<glyph glyph-name="user" unicode="&#119;" d="M256 464c-115 0-208-93-208-208 0-115 93-208 208-208 115 0 208 93 208 208 0 115-93 208-208 208z m0-17c105 0 191-86 191-191 0-47-17-89-45-122-20 8-66 24-93 32-2 1-2 1-2 11 0 8 3 16 6 23 4 7 8 20 10 31 4 5 10 15 13 33 3 17 2 22 0 28 0 1-1 1-1 2-1 3 0 23 3 38 2 11 0 33-15 52-9 11-26 26-58 28l-18 0c-31-2-48-17-58-28-14-19-17-41-15-52 3-15 4-35 3-38 0-1 0-2 0-2-2-6-4-12-1-28 4-18 10-28 14-33 2-11 6-24 9-31 3-6 4-13 4-24 0-10 0-10-3-11-28-8-72-24-90-32-28 34-45 76-45 123 0 105 86 191 191 191z"/>
</font>
</defs>
</svg>
